<svg width="100" height="95" viewBox="0 0 100 95" fill="none" xmlns="http://www.w3.org/2000/svg">
<path fill-rule="evenodd" clip-rule="evenodd" d="M50 0C77.615 0 100 21.8022 100 48.7014C100 70.2142 85.69 88.4638 65.835 94.9095C63.3 95.3893 62.4 93.8684 62.4 92.5717C62.4 90.9662 62.46 85.7223 62.46 79.2053C62.46 74.6643 60.86 71.7006 59.065 70.1901C70.2 68.9836 81.9 64.8649 81.9 46.1594C81.9 40.8394 79.96 36.4981 76.75 33.0876C77.27 31.8574 78.985 26.9038 76.26 20.1968C76.26 20.1968 72.07 18.8918 62.525 25.1903C58.53 24.1121 54.25 23.5695 50 23.5505C45.75 23.5695 41.475 24.1121 37.485 25.1903C27.93 18.8918 23.73 20.1968 23.73 20.1968C21.015 26.9038 22.73 31.8574 23.245 33.0876C20.05 36.4981 18.095 40.8394 18.095 46.1594C18.095 64.8174 29.77 68.9992 40.875 70.2295C39.445 71.4455 38.15 73.5906 37.7 76.7399C34.85 77.9844 27.61 80.1382 23.15 72.6949C23.15 72.6949 20.505 68.0156 15.485 67.6736C15.485 67.6736 10.61 67.6121 15.145 70.6331C15.145 70.6331 18.42 72.1293 20.695 77.7581C20.695 77.7581 23.63 86.4504 37.54 83.5054C37.565 87.5761 37.61 91.4127 37.61 92.5717C37.61 93.8589 36.69 95.3654 34.195 94.9142C14.325 88.4779 0 70.2189 0 48.7014C0 21.8022 22.39 0 50 0Z" fill="#F5F5F5"/>
</svg>
