<svg width="289" height="561" viewBox="0 0 289 561" fill="none" xmlns="http://www.w3.org/2000/svg">
<path d="M-47.2728 253.063L78.878 295.77C113.998 307.659 151.816 288.236 163.755 252.969L204.468 132.707C216.055 98.4834 195.886 62.9953 163.544 45.6768C143.069 34.7222 121.113 25.4589 99.4916 18.2524C77.8623 11.042 56.6279 5.90536 37.3932 2.96986C-19.2471 -5.67742 -35.6399 10.7982 -47.9784 47.2445L-64.274 95.3798L62.0219 138.136L56.5906 154.179L-69.7053 111.423L-117.102 95.3776C-153.811 82.9501 -193.422 94.1304 -217.679 132.7C-245.559 176.881 -256.241 206.722 -261.133 261.057C-264.812 301.484 -252.394 335.386 -215.688 347.812L-172.262 362.514L-152.727 304.81C-138.614 263.123 -90.105 238.562 -47.2728 253.063ZM1.78876 81.9758C-11.302 77.5441 -18.2799 63.2246 -13.7885 49.9577C-9.2821 36.6462 4.99292 29.4108 18.0837 33.8425C31.131 38.2595 38.1146 52.6918 33.6081 66.0033C29.1164 79.2712 14.8371 86.3932 1.78876 81.9758ZM287.364 303.676C290.658 264.064 282.64 230.706 245.887 218.263L198.491 202.218L179.504 258.3C164.784 301.783 115.534 325.895 73.4972 311.664L-52.6536 268.957C-87.203 257.261 -125.812 277.154 -137.528 311.764L-178.24 432.021C-189.827 466.247 -166.884 496.46 -136.819 517.571C-100.823 542.866 -63.2109 557.973 -10.668 560.277C24.2376 561.845 61.8688 553.929 74.2069 517.484L90.5018 469.35L-35.649 426.643L-30.2177 410.6L95.9331 453.307L159.079 474.684C195.785 487.111 218.136 466.138 243.91 432.033C270.483 396.934 282.801 358.697 287.364 303.676ZM24.4411 482.752C37.5361 487.185 44.5053 501.502 40.0161 514.763C35.5093 528.076 21.2411 535.318 8.14617 530.885C-4.90217 526.468 -11.8874 512.03 -7.38064 498.718C-2.89138 485.457 11.3928 478.334 24.4411 482.752Z" fill="#5A5A5A"/>
</svg>
