<svg width="266" height="87" viewBox="0 0 266 87" fill="none" xmlns="http://www.w3.org/2000/svg">
<path d="M145.5 47.5C153.615 47.5 160.944 48.393 166.229 49.8262C168.875 50.5437 170.98 51.3886 172.412 52.3066C173.867 53.2395 174.5 54.1616 174.5 55C174.5 55.8384 173.867 56.7605 172.412 57.6934C170.98 58.6114 168.875 59.4563 166.229 60.1738C160.944 61.607 153.615 62.5 145.5 62.5C137.385 62.5 130.056 61.607 124.771 60.1738C122.125 59.4563 120.02 58.6114 118.588 57.6934C117.133 56.7605 116.5 55.8384 116.5 55C116.5 54.1616 117.133 53.2395 118.588 52.3066C120.02 51.3886 122.125 50.5437 124.771 49.8262C130.056 48.393 137.385 47.5 145.5 47.5Z" stroke="#F2F2F2"/>
<path d="M145.5 23.5C153.615 23.5 160.944 24.393 166.229 25.8262C168.875 26.5437 170.98 27.3886 172.412 28.3066C173.867 29.2395 174.5 30.1616 174.5 31C174.5 31.8384 173.867 32.7605 172.412 33.6934C170.98 34.6114 168.875 35.4563 166.229 36.1738C160.944 37.607 153.615 38.5 145.5 38.5C137.385 38.5 130.056 37.607 124.771 36.1738C122.125 35.4563 120.02 34.6114 118.588 33.6934C117.133 32.7605 116.5 31.8384 116.5 31C116.5 30.1616 117.133 29.2395 118.588 28.3066C120.02 27.3886 122.125 26.5437 124.771 25.8262C130.056 24.393 137.385 23.5 145.5 23.5Z" stroke="#F2F2F2"/>
<path d="M145.5 71.5C153.615 71.5 160.944 72.393 166.229 73.8262C168.875 74.5437 170.98 75.3886 172.412 76.3066C173.867 77.2395 174.5 78.1616 174.5 79C174.5 79.8384 173.867 80.7605 172.412 81.6934C170.98 82.6114 168.875 83.4563 166.229 84.1738C160.944 85.607 153.615 86.5 145.5 86.5C137.385 86.5 130.056 85.607 124.771 84.1738C122.125 83.4563 120.02 82.6114 118.588 81.6934C117.133 80.7605 116.5 79.8384 116.5 79C116.5 78.1616 117.133 77.2395 118.588 76.3066C120.02 75.3886 122.125 74.5437 124.771 73.8262C130.056 72.393 137.385 71.5 145.5 71.5Z" stroke="#F2F2F2"/>
<path d="M145.5 0.5C153.615 0.5 160.944 1.39303 166.229 2.82617C168.875 3.54373 170.98 4.38855 172.412 5.30664C173.867 6.23949 174.5 7.16158 174.5 8C174.5 8.83842 173.867 9.76051 172.412 10.6934C170.98 11.6114 168.875 12.4563 166.229 13.1738C160.944 14.607 153.615 15.5 145.5 15.5C137.385 15.5 130.056 14.607 124.771 13.1738C122.125 12.4563 120.02 11.6114 118.588 10.6934C117.133 9.76051 116.5 8.83842 116.5 8C116.5 7.16158 117.133 6.23949 118.588 5.30664C120.02 4.38855 122.125 3.54373 124.771 2.82617C130.056 1.39303 137.385 0.5 145.5 0.5Z" stroke="#F2F2F2"/>
<line x1="174.5" y1="7.5" x2="174.5" y2="79.58" stroke="#F2F2F2" stroke-linecap="round"/>
<line x1="116.5" y1="7.45996" x2="116.5" y2="79.54" stroke="#F2F2F2" stroke-linecap="round"/>
<path d="M1 42.8468L75 79.6936" stroke="#F2F2F2" stroke-linecap="square"/>
<path d="M75 6L1.00002 42.8468" stroke="#F2F2F2" stroke-linecap="square"/>
<path d="M265 42.8468L191 5.99996" stroke="#F2F2F2" stroke-linecap="square"/>
<path d="M191 79.861L265 43.0141" stroke="#F2F2F2" stroke-linecap="square"/>
<path d="M87 82.8494L108.396 3.00001" stroke="#F2F2F2" stroke-linecap="square"/>
</svg>
