<svg width="62" height="24" viewBox="0 0 62 24" fill="none" xmlns="http://www.w3.org/2000/svg">
<path d="M36.5356 14.4552C36.5356 14.5833 36.4398 14.7637 36.1211 14.9737C35.8125 15.177 35.3494 15.3698 34.7547 15.5355C33.5689 15.8659 31.9164 16.0735 30.081 16.0735C28.2456 16.0735 26.5931 15.8659 25.4073 15.5355C24.8126 15.3698 24.3495 15.177 24.0409 14.9737C23.7222 14.7637 23.6265 14.5833 23.6265 14.4552C23.6265 14.3271 23.7222 14.1467 24.0409 13.9368C24.3495 13.7334 24.8126 13.5407 25.4073 13.375C26.5931 13.0445 28.2456 12.8369 30.081 12.8369C31.9164 12.8369 33.5689 13.0445 34.7547 13.375C35.3494 13.5407 35.8125 13.7334 36.1211 13.9368C36.4398 14.1467 36.5356 14.3271 36.5356 14.4552Z" stroke="white" stroke-width="0.5"/>
<path d="M36.5356 8.85024C36.5356 8.97837 36.4398 9.15877 36.1211 9.3687C35.8125 9.57204 35.3494 9.76479 34.7547 9.9305C33.5689 10.2609 31.9164 10.4685 30.081 10.4685C28.2456 10.4685 26.5931 10.2609 25.4073 9.9305C24.8126 9.76479 24.3495 9.57204 24.0409 9.3687C23.7222 9.15877 23.6265 8.97837 23.6265 8.85024C23.6265 8.72211 23.7222 8.5417 24.0409 8.33177C24.3495 8.12844 24.8126 7.93568 25.4073 7.76997C26.5931 7.43953 28.2456 7.23193 30.081 7.23193C31.9164 7.23193 33.5689 7.43953 34.7547 7.76997C35.3494 7.93568 35.8125 8.12844 36.1211 8.33177C36.4398 8.5417 36.5356 8.72211 36.5356 8.85024Z" stroke="white" stroke-width="0.5"/>
<path d="M36.5356 20.0601C36.5356 20.1882 36.4398 20.3686 36.1211 20.5785C35.8125 20.7819 35.3494 20.9746 34.7547 21.1403C33.5689 21.4708 31.9164 21.6784 30.081 21.6784C28.2456 21.6784 26.5931 21.4708 25.4073 21.1403C24.8126 20.9746 24.3495 20.7819 24.0409 20.5785C23.7222 20.3686 23.6265 20.1882 23.6265 20.0601C23.6265 19.9319 23.7222 19.7515 24.0409 19.5416C24.3495 19.3383 24.8126 19.1455 25.4073 18.9798C26.5931 18.6494 28.2456 18.4418 30.081 18.4418C31.9164 18.4418 33.5689 18.6494 34.7547 18.9798C35.3494 19.1455 35.8125 19.3383 36.1211 19.5416C36.4398 19.7515 36.5356 19.9319 36.5356 20.0601Z" stroke="white" stroke-width="0.5"/>
<path d="M36.5356 3.4789C36.5356 3.60703 36.4398 3.78743 36.1211 3.99736C35.8125 4.2007 35.3494 4.39345 34.7547 4.55916C33.5689 4.88961 31.9164 5.0972 30.081 5.0972C28.2456 5.0972 26.5931 4.88961 25.4073 4.55916C24.8126 4.39345 24.3495 4.2007 24.0409 3.99736C23.7222 3.78743 23.6265 3.60703 23.6265 3.4789C23.6265 3.35077 23.7222 3.17037 24.0409 2.96044C24.3495 2.7571 24.8126 2.56434 25.4073 2.39863C26.5931 2.06819 28.2456 1.8606 30.081 1.8606C31.9164 1.8606 33.5689 2.06819 34.7547 2.39863C35.3494 2.56434 35.8125 2.7571 36.1211 2.96044C36.4398 3.17037 36.5356 3.35077 36.5356 3.4789Z" stroke="white" stroke-width="0.5"/>
<line x1="36.8081" y1="3.49536" x2="36.8081" y2="20.0623" stroke="white" stroke-width="0.5" stroke-linecap="round"/>
<line x1="23.6265" y1="3.48596" x2="23.6265" y2="20.0529" stroke="white" stroke-width="0.5" stroke-linecap="round"/>
<path d="M0.779297 11.8263L17.5975 20.4314" stroke="white" stroke-width="0.8" stroke-linecap="square"/>
<path d="M17.5977 3.22119L0.779475 11.8263" stroke="white" stroke-width="0.8" stroke-linecap="square"/>
<path d="M60.7793 11.8263L43.9611 3.22116" stroke="white" stroke-width="0.8" stroke-linecap="square"/>
<path d="M43.9609 20.4706L60.7791 11.8655" stroke="white" stroke-width="0.8" stroke-linecap="square"/>
</svg>
