<svg width="389" height="102" viewBox="0 0 389 102" fill="none" xmlns="http://www.w3.org/2000/svg">
<path d="M225.5 65C225.5 65.4267 225.149 66.2198 223.532 67.2317C221.993 68.1949 219.666 69.1175 216.658 69.9139C210.663 71.5008 202.298 72.5 193 72.5C183.702 72.5 175.337 71.5008 169.342 69.9139C166.334 69.1175 164.007 68.1949 162.468 67.2317C160.851 66.2198 160.5 65.4267 160.5 65C160.5 64.5733 160.851 63.7802 162.468 62.7683C164.007 61.8051 166.334 60.8825 169.342 60.0861C175.337 58.4992 183.702 57.5 193 57.5C202.298 57.5 210.663 58.4992 216.658 60.0861C219.666 60.8825 221.993 61.8051 223.532 62.7683C225.149 63.7802 225.5 64.5733 225.5 65Z" stroke="black" stroke-width="3"/>
<path d="M225.5 38C225.5 38.4267 225.149 39.2198 223.532 40.2317C221.993 41.1949 219.666 42.1175 216.658 42.9139C210.663 44.5008 202.298 45.5 193 45.5C183.702 45.5 175.337 44.5008 169.342 42.9139C166.334 42.1175 164.007 41.1949 162.468 40.2317C160.851 39.2198 160.5 38.4267 160.5 38C160.5 37.5733 160.851 36.7802 162.468 35.7683C164.007 34.8051 166.334 33.8825 169.342 33.0861C175.337 31.4992 183.702 30.5 193 30.5C202.298 30.5 210.663 31.4992 216.658 33.0861C219.666 33.8825 221.993 34.8051 223.532 35.7683C225.149 36.7802 225.5 37.5733 225.5 38Z" stroke="black" stroke-width="3"/>
<path d="M225 93C225 93.1547 224.849 93.8176 223.267 94.8078C221.788 95.7333 219.516 96.6401 216.53 97.4306C210.587 99.0036 202.267 100 193 100C183.733 100 175.413 99.0036 169.47 97.4306C166.484 96.6401 164.212 95.7333 162.733 94.8078C161.151 93.8176 161 93.1547 161 93C161 92.8453 161.151 92.1824 162.733 91.1922C164.212 90.2667 166.484 89.3599 169.47 88.5694C175.413 86.9964 183.733 86 193 86C202.267 86 210.587 86.9964 216.53 88.5694C219.516 89.3599 221.788 90.2667 223.267 91.1922C224.849 92.1824 225 92.8453 225 93Z" stroke="black" stroke-width="4"/>
<path d="M225 11C225 11.1547 224.849 11.8176 223.267 12.8078C221.788 13.7333 219.516 14.6401 216.53 15.4306C210.587 17.0036 202.267 18 193 18C183.733 18 175.413 17.0036 169.47 15.4306C166.484 14.6401 164.212 13.7333 162.733 12.8078C161.151 11.8176 161 11.1547 161 11C161 10.8453 161.151 10.1824 162.733 9.19215C164.212 8.26675 166.484 7.35985 169.47 6.56945C175.413 4.99644 183.733 4 193 4C202.267 4 210.587 4.99644 216.53 6.56945C219.516 7.35985 221.788 8.26675 223.267 9.19215C224.849 10.1824 225 10.8453 225 11Z" stroke="black" stroke-width="4"/>
<line x1="225.5" y1="11.5" x2="225.5" y2="92.5" stroke="black" stroke-width="3" stroke-linecap="round"/>
<line x1="160.5" y1="11.5" x2="160.5" y2="92.5" stroke="black" stroke-width="3" stroke-linecap="round"/>
<path d="M4.00006 50.7513L101.908 2.00003" stroke="black" stroke-width="4" stroke-linecap="square"/>
<path d="M101.908 99.7241L4.00001 50.9728" stroke="black" stroke-width="4" stroke-linecap="square"/>
<path d="M384.908 50.7513L287 2.00003" stroke="black" stroke-width="4" stroke-linecap="square"/>
<path d="M287 99.724L384.908 50.9727" stroke="black" stroke-width="4" stroke-linecap="square"/>
</svg>
