<svg width="506" height="132" viewBox="0 0 506 132" fill="none" xmlns="http://www.w3.org/2000/svg">
<path d="M292.5 12.5678C292.5 13.8886 291.461 15.2802 289.241 16.6445C287.049 17.9915 283.845 19.2226 279.84 20.2635C271.839 22.3435 260.759 23.6356 248.5 23.6356C236.241 23.6356 225.161 22.3435 217.16 20.2635C213.155 19.2226 209.951 17.9915 207.759 16.6445C205.539 15.2802 204.5 13.8886 204.5 12.5678C204.5 11.247 205.539 9.85539 207.759 8.49107C209.951 7.14407 213.155 5.91297 217.16 4.87205C225.161 2.79214 236.241 1.5 248.5 1.5C260.759 1.5 271.839 2.79214 279.84 4.87205C283.845 5.91297 287.049 7.14407 289.241 8.49107C291.461 9.85539 292.5 11.247 292.5 12.5678Z" stroke="black" stroke-width="2"/>
<path d="M292.5 45.6187C292.5 46.9395 291.461 48.3311 289.241 49.6954C287.049 51.0424 283.845 52.2735 279.84 53.3145C271.839 55.3944 260.759 56.6865 248.5 56.6865C236.241 56.6865 225.161 55.3944 217.16 53.3145C213.155 52.2735 209.951 51.0424 207.759 49.6954C205.539 48.3311 204.5 46.9395 204.5 45.6187C204.5 44.2979 205.539 42.9063 207.759 41.542C209.951 40.195 213.155 38.9639 217.16 37.9229C225.161 35.843 236.241 34.5509 248.5 34.5509C260.759 34.5509 271.839 35.843 279.84 37.9229C283.845 38.9639 287.049 40.195 289.241 41.542C291.461 42.9063 292.5 44.2979 292.5 45.6187Z" stroke="black" stroke-width="2"/>
<path d="M292.5 77.5678C292.5 78.8886 291.461 80.2802 289.241 81.6445C287.049 82.9915 283.845 84.2226 279.84 85.2635C271.839 87.3435 260.759 88.6356 248.5 88.6356C236.241 88.6356 225.161 87.3435 217.16 85.2635C213.155 84.2226 209.951 82.9915 207.759 81.6445C205.539 80.2802 204.5 78.8886 204.5 77.5678C204.5 76.247 205.539 74.8554 207.759 73.4911C209.951 72.1441 213.155 70.913 217.16 69.872C225.161 67.7921 236.241 66.5 248.5 66.5C260.759 66.5 271.839 67.7921 279.84 69.872C283.845 70.913 287.049 72.1441 289.241 73.4911C291.461 74.8554 292.5 76.247 292.5 77.5678Z" stroke="black" stroke-width="2"/>
<path d="M292.5 119.432C292.5 120.753 291.461 122.145 289.241 123.509C287.049 124.856 283.845 126.087 279.84 127.128C271.839 129.208 260.759 130.5 248.5 130.5C236.241 130.5 225.161 129.208 217.16 127.128C213.155 126.087 209.951 124.856 207.759 123.509C205.539 122.145 204.5 120.753 204.5 119.432C204.5 118.111 205.539 116.72 207.759 115.355C209.951 114.008 213.155 112.777 217.16 111.736C225.161 109.657 236.241 108.364 248.5 108.364C260.759 108.364 271.839 109.657 279.84 111.736C283.845 112.777 287.049 114.008 289.241 115.355C291.461 116.72 292.5 118.111 292.5 119.432Z" stroke="black" stroke-width="2"/>
<line x1="204.5" y1="12.517" x2="204.5" y2="119.483" stroke="black" stroke-linecap="round" stroke-width="2"/>
<line x1="292.583" y1="12.517" x2="292.583" y2="119.483" stroke="black" stroke-linecap="round" stroke-width="2"/>
<line y1="-1" x2="146.467" y2="-1" transform="matrix(0.895167 -0.445731 0.895167 0.445731 2 66.3204)" stroke="black" stroke-width="2"/>
<line y1="-1" x2="146.467" y2="-1" transform="matrix(-0.895167 -0.445731 0.895167 -0.445731 133.804 129.743)" stroke="black" stroke-width="2"/>
<line y1="-1" x2="146.344" y2="-1" transform="matrix(-0.893486 -0.449091 -0.893486 0.449091 503.804 66.7217)" stroke="black" stroke-width="2"/>
<line y1="-1" x2="146.344" y2="-1" transform="matrix(0.893486 -0.449091 -0.893486 -0.449091 372 130.743)" stroke="black" stroke-width="2"/>
</svg>
